<?xml version="1.0" encoding="utf-8" standalone="no"?>
<!DOCTYPE svg PUBLIC "-//W3C//DTD SVG 1.1//EN"
  "http://www.w3.org/Graphics/SVG/1.1/DTD/svg11.dtd">
<svg xmlns:xlink="http://www.w3.org/1999/xlink" width="727.897284pt" height="440.39952pt" viewBox="0 0 727.897284 440.39952" xmlns="http://www.w3.org/2000/svg" version="1.1">
 <metadata>
  <rdf:RDF xmlns:dc="http://purl.org/dc/elements/1.1/" xmlns:cc="http://creativecommons.org/ns#" xmlns:rdf="http://www.w3.org/1999/02/22-rdf-syntax-ns#">
   <cc:Work>
    <dc:type rdf:resource="http://purl.org/dc/dcmitype/StillImage"/>
    <dc:date>2026-02-07T21:21:30.438481</dc:date>
    <dc:format>image/svg+xml</dc:format>
    <dc:creator>
     <cc:Agent>
      <dc:title>Matplotlib v3.10.8, https://matplotlib.org/</dc:title>
     </cc:Agent>
    </dc:creator>
   </cc:Work>
  </rdf:RDF>
 </metadata>
 <defs>
  <style type="text/css">*{stroke-linejoin: round; stroke-linecap: butt}</style>
 </defs>
 <g id="figure_1">
  <g id="patch_1">
   <path d="M 0 440.39952 
L 727.897284 440.39952 
L 727.897284 0 
L 0 0 
z
" style="fill: #ffffff"/>
  </g>
  <g id="axes_1">
   <g id="axes_2">
    <g id="patch_2">
     <path d="M 61.14375 114.638687 
L 345.161962 114.638687 
L 345.161962 46.733716 
L 61.14375 46.733716 
z
" style="fill: #ffffff"/>
    </g>
    <g id="matplotlib.axis_1">
     <g id="xtick_1">
      <g id="line2d_1">
       <defs>
        <path id="mfabeb76dc6" d="M 0 0 
L 0 3.5 
" style="stroke: #000000; stroke-width: 0.8"/>
       </defs>
       <g>
        <use xlink:href="#mfabeb76dc6" x="74.053669" y="114.638687" style="stroke: #000000; stroke-width: 0.8"/>
       </g>
      </g>
      <g id="text_1">
       <text style="font-size: 16px; font-family: 'DejaVu Sans'; text-anchor: middle" x="74.053669" y="133.796187" transform="rotate(-0 74.053669 133.796187)">0.0</text>
      </g>
     </g>
     <g id="xtick_2">
      <g id="line2d_2">
       <g>
        <use xlink:href="#mfabeb76dc6" x="138.603262" y="114.638687" style="stroke: #000000; stroke-width: 0.8"/>
       </g>
      </g>
      <g id="text_2">
       <text style="font-size: 16px; font-family: 'DejaVu Sans'; text-anchor: middle" x="138.603262" y="133.796187" transform="rotate(-0 138.603262 133.796187)">2.5</text>
      </g>
     </g>
     <g id="xtick_3">
      <g id="line2d_3">
       <g>
        <use xlink:href="#mfabeb76dc6" x="203.152856" y="114.638687" style="stroke: #000000; stroke-width: 0.8"/>
       </g>
      </g>
      <g id="text_3">
       <text style="font-size: 16px; font-family: 'DejaVu Sans'; text-anchor: middle" x="203.152856" y="133.796187" transform="rotate(-0 203.152856 133.796187)">5.0</text>
      </g>
     </g>
     <g id="xtick_4">
      <g id="line2d_4">
       <g>
        <use xlink:href="#mfabeb76dc6" x="267.70245" y="114.638687" style="stroke: #000000; stroke-width: 0.8"/>
       </g>
      </g>
      <g id="text_4">
       <text style="font-size: 16px; font-family: 'DejaVu Sans'; text-anchor: middle" x="267.70245" y="133.796187" transform="rotate(-0 267.70245 133.796187)">7.5</text>
      </g>
     </g>
     <g id="xtick_5">
      <g id="line2d_5">
       <g>
        <use xlink:href="#mfabeb76dc6" x="332.252044" y="114.638687" style="stroke: #000000; stroke-width: 0.8"/>
       </g>
      </g>
      <g id="text_5">
       <text style="font-size: 16px; font-family: 'DejaVu Sans'; text-anchor: middle" x="332.252044" y="133.796187" transform="rotate(-0 332.252044 133.796187)">10.0</text>
      </g>
     </g>
     <g id="text_6">
      <text style="font-size: 20px; font-family: 'DejaVu Sans'; text-anchor: middle" x="203.152856" y="156.320562" transform="rotate(-0 203.152856 156.320562)">x</text>
     </g>
    </g>
    <g id="matplotlib.axis_2">
     <g id="ytick_1">
      <g id="line2d_6">
       <defs>
        <path id="m8961fbff79" d="M 0 0 
L -3.5 0 
" style="stroke: #000000; stroke-width: 0.8"/>
       </defs>
       <g>
        <use xlink:href="#m8961fbff79" x="61.14375" y="111.557391" style="stroke: #000000; stroke-width: 0.8"/>
       </g>
      </g>
      <g id="text_7">
       <text style="font-size: 16px; font-family: 'DejaVu Sans'; text-anchor: end" x="54.14375" y="117.636141" transform="rotate(-0 54.14375 117.636141)">−1</text>
      </g>
     </g>
     <g id="ytick_2">
      <g id="line2d_7">
       <g>
        <use xlink:href="#m8961fbff79" x="61.14375" y="80.659302" style="stroke: #000000; stroke-width: 0.8"/>
       </g>
      </g>
      <g id="text_8">
       <text style="font-size: 16px; font-family: 'DejaVu Sans'; text-anchor: end" x="54.14375" y="86.738052" transform="rotate(-0 54.14375 86.738052)">0</text>
      </g>
     </g>
     <g id="ytick_3">
      <g id="line2d_8">
       <g>
        <use xlink:href="#m8961fbff79" x="61.14375" y="49.761212" style="stroke: #000000; stroke-width: 0.8"/>
       </g>
      </g>
      <g id="text_9">
       <text style="font-size: 16px; font-family: 'DejaVu Sans'; text-anchor: end" x="54.14375" y="55.839962" transform="rotate(-0 54.14375 55.839962)">1</text>
      </g>
     </g>
     <g id="text_10">
      <text style="font-size: 20px; font-family: 'DejaVu Sans'; text-anchor: middle" x="22.396875" y="80.686201" transform="rotate(-90 22.396875 80.686201)">y</text>
     </g>
    </g>
    <g id="line2d_9">
     <path d="M 74.053669 80.659302 
L 79.323023 74.39725 
L 84.592378 68.395104 
L 89.861733 62.901983 
L 95.131087 58.145879 
L 100.400442 54.324194 
L 105.669796 51.595546 
L 110.939151 50.073188 
L 116.208505 49.820305 
L 121.47786 50.847394 
L 126.747215 53.111825 
L 132.016569 56.519612 
L 137.285924 60.929317 
L 142.555278 66.157913 
L 147.824633 71.988389 
L 153.093988 78.178751 
L 158.363342 84.472068 
L 163.632697 90.607137 
L 168.902051 96.32932 
L 174.171406 101.401121 
L 179.440761 105.612033 
L 184.710115 108.787283 
L 189.97947 110.795082 
L 195.248824 111.552097 
L 200.518179 111.026908 
L 205.787533 109.241313 
L 211.056888 106.269422 
L 216.326243 102.234584 
L 221.595597 97.304266 
L 226.864952 91.683098 
L 232.134306 85.604389 
L 237.403661 79.320434 
L 242.673016 73.092048 
L 247.94237 67.177741 
L 253.211725 61.822986 
L 258.481079 57.250031 
L 263.750434 53.648677 
L 269.019789 51.168398 
L 274.289143 49.912137 
L 279.558498 49.932036 
L 284.827852 51.22727 
L 290.097207 53.744078 
L 295.366561 57.378001 
L 300.635916 61.978214 
L 305.905271 67.353785 
L 311.174625 73.281601 
L 316.44398 79.515627 
L 321.713334 85.797122 
L 326.982689 91.865372 
L 332.252044 97.468514 
" clip-path="url(#p63c3c80478)" style="fill: none; stroke: #1f77b4; stroke-width: 2; stroke-linecap: square"/>
    </g>
    <g id="patch_3">
     <path d="M 61.14375 114.638687 
L 61.14375 46.733716 
" style="fill: none; stroke: #000000; stroke-width: 0.8; stroke-linejoin: miter; stroke-linecap: square"/>
    </g>
    <g id="patch_4">
     <path d="M 345.161962 114.638687 
L 345.161962 46.733716 
" style="fill: none; stroke: #000000; stroke-width: 0.8; stroke-linejoin: miter; stroke-linecap: square"/>
    </g>
    <g id="patch_5">
     <path d="M 61.14375 114.638687 
L 345.161962 114.638687 
" style="fill: none; stroke: #000000; stroke-width: 0.8; stroke-linejoin: miter; stroke-linecap: square"/>
    </g>
    <g id="patch_6">
     <path d="M 61.14375 46.733716 
L 345.161962 46.733716 
" style="fill: none; stroke: #000000; stroke-width: 0.8; stroke-linejoin: miter; stroke-linecap: square"/>
    </g>
   </g>
   <g id="text_11">
    <g id="patch_7">
     <path d="M 18.856164 41.89875 
L 28.454914 41.89875 
Q 34.054914 41.89875 34.054914 36.29875 
L 34.054914 9.2 
Q 34.054914 3.6 28.454914 3.6 
L 18.856164 3.6 
Q 13.256164 3.6 13.256164 9.2 
L 13.256164 36.29875 
Q 13.256164 41.89875 18.856164 41.89875 
z
" style="fill: #ffffff; opacity: 0.9"/>
    </g>
    <text style="font-weight: 700; font-size: 28px; font-family: 'DejaVu Sans'; text-anchor: start" x="18.856164" y="30.475625" transform="rotate(-0 18.856164 30.475625)">i</text>
   </g>
  </g>
  <g id="axes_3">
   <g id="text_12">
    <text style="font-weight: 700; font-size: 40.32px; font-family: 'DejaVu Sans'; text-anchor: middle" x="551.641803" y="72.045143" transform="rotate(-0 551.641803 72.045143)">LEGEND</text>
   </g>
  </g>
  <g id="axes_4">
   <g id="axes_5">
    <g id="patch_8">
     <path d="M 61.14375 273.919103 
L 345.161962 273.919103 
L 345.161962 206.014133 
L 61.14375 206.014133 
z
" style="fill: #ffffff"/>
    </g>
    <g id="matplotlib.axis_3">
     <g id="xtick_6">
      <g id="line2d_10">
       <g>
        <use xlink:href="#mfabeb76dc6" x="74.053669" y="273.919103" style="stroke: #000000; stroke-width: 0.8"/>
       </g>
      </g>
      <g id="text_13">
       <text style="font-size: 16px; font-family: 'DejaVu Sans'; text-anchor: middle" x="74.053669" y="293.076603" transform="rotate(-0 74.053669 293.076603)">0.0</text>
      </g>
     </g>
     <g id="xtick_7">
      <g id="line2d_11">
       <g>
        <use xlink:href="#mfabeb76dc6" x="138.603262" y="273.919103" style="stroke: #000000; stroke-width: 0.8"/>
       </g>
      </g>
      <g id="text_14">
       <text style="font-size: 16px; font-family: 'DejaVu Sans'; text-anchor: middle" x="138.603262" y="293.076603" transform="rotate(-0 138.603262 293.076603)">2.5</text>
      </g>
     </g>
     <g id="xtick_8">
      <g id="line2d_12">
       <g>
        <use xlink:href="#mfabeb76dc6" x="203.152856" y="273.919103" style="stroke: #000000; stroke-width: 0.8"/>
       </g>
      </g>
      <g id="text_15">
       <text style="font-size: 16px; font-family: 'DejaVu Sans'; text-anchor: middle" x="203.152856" y="293.076603" transform="rotate(-0 203.152856 293.076603)">5.0</text>
      </g>
     </g>
     <g id="xtick_9">
      <g id="line2d_13">
       <g>
        <use xlink:href="#mfabeb76dc6" x="267.70245" y="273.919103" style="stroke: #000000; stroke-width: 0.8"/>
       </g>
      </g>
      <g id="text_16">
       <text style="font-size: 16px; font-family: 'DejaVu Sans'; text-anchor: middle" x="267.70245" y="293.076603" transform="rotate(-0 267.70245 293.076603)">7.5</text>
      </g>
     </g>
     <g id="xtick_10">
      <g id="line2d_14">
       <g>
        <use xlink:href="#mfabeb76dc6" x="332.252044" y="273.919103" style="stroke: #000000; stroke-width: 0.8"/>
       </g>
      </g>
      <g id="text_17">
       <text style="font-size: 16px; font-family: 'DejaVu Sans'; text-anchor: middle" x="332.252044" y="293.076603" transform="rotate(-0 332.252044 293.076603)">10.0</text>
      </g>
     </g>
     <g id="text_18">
      <text style="font-size: 20px; font-family: 'DejaVu Sans'; text-anchor: middle" x="203.152856" y="315.600978" transform="rotate(-0 203.152856 315.600978)">x</text>
     </g>
    </g>
    <g id="matplotlib.axis_4">
     <g id="ytick_4">
      <g id="line2d_15">
       <g>
        <use xlink:href="#m8961fbff79" x="61.14375" y="270.853672" style="stroke: #000000; stroke-width: 0.8"/>
       </g>
      </g>
      <g id="text_19">
       <text style="font-size: 16px; font-family: 'DejaVu Sans'; text-anchor: end" x="54.14375" y="276.932422" transform="rotate(-0 54.14375 276.932422)">−1</text>
      </g>
     </g>
     <g id="ytick_5">
      <g id="line2d_16">
       <g>
        <use xlink:href="#m8961fbff79" x="61.14375" y="239.977197" style="stroke: #000000; stroke-width: 0.8"/>
       </g>
      </g>
      <g id="text_20">
       <text style="font-size: 16px; font-family: 'DejaVu Sans'; text-anchor: end" x="54.14375" y="246.055947" transform="rotate(-0 54.14375 246.055947)">0</text>
      </g>
     </g>
     <g id="ytick_6">
      <g id="line2d_17">
       <g>
        <use xlink:href="#m8961fbff79" x="61.14375" y="209.100722" style="stroke: #000000; stroke-width: 0.8"/>
       </g>
      </g>
      <g id="text_21">
       <text style="font-size: 16px; font-family: 'DejaVu Sans'; text-anchor: end" x="54.14375" y="215.179472" transform="rotate(-0 54.14375 215.179472)">1</text>
      </g>
     </g>
     <g id="text_22">
      <text style="font-size: 20px; font-family: 'DejaVu Sans'; text-anchor: middle" x="22.396875" y="239.966618" transform="rotate(-90 22.396875 239.966618)">y</text>
     </g>
    </g>
    <g id="line2d_18">
     <path d="M 74.053669 209.100722 
L 79.323023 209.741486 
L 84.592378 211.637181 
L 89.861733 214.709127 
L 95.131087 218.829824 
L 100.400442 223.828242 
L 105.669796 229.496921 
L 110.939151 235.600584 
L 116.208505 241.885897 
L 121.47786 248.091991 
L 126.747215 253.96128 
L 132.016569 259.25016 
L 137.285924 263.739117 
L 142.555278 267.241837 
L 147.824633 269.612938 
L 153.093988 270.75401 
L 158.363342 270.617691 
L 163.632697 269.20964 
L 168.902051 266.588297 
L 174.171406 262.862462 
L 179.440761 258.186775 
L 184.710115 252.7553 
L 189.97947 246.793471 
L 195.248824 240.548732 
L 200.518179 234.280272 
L 205.787533 228.248263 
L 211.056888 222.703062 
L 216.326243 217.874824 
L 221.595597 213.963944 
L 226.864952 211.132742 
L 232.134306 209.498729 
L 237.403661 209.129723 
L 242.673016 210.04104 
L 247.94237 212.194857 
L 253.211725 215.501778 
L 258.481079 219.82455 
L 263.750434 224.983757 
L 269.019789 230.765267 
L 274.289143 236.929117 
L 279.558498 243.219477 
L 284.827852 249.375267 
L 290.097207 255.14099 
L 295.366561 260.277341 
L 300.635916 264.571135 
L 305.905271 267.844159 
L 311.174625 269.960565 
L 316.44398 270.832514 
L 321.713334 270.423813 
L 326.982689 268.751428 
L 332.252044 265.884768 
" clip-path="url(#pa88943e677)" style="fill: none; stroke: #1f77b4; stroke-width: 2; stroke-linecap: square"/>
    </g>
    <g id="patch_9">
     <path d="M 61.14375 273.919103 
L 61.14375 206.014133 
" style="fill: none; stroke: #000000; stroke-width: 0.8; stroke-linejoin: miter; stroke-linecap: square"/>
    </g>
    <g id="patch_10">
     <path d="M 345.161962 273.919103 
L 345.161962 206.014133 
" style="fill: none; stroke: #000000; stroke-width: 0.8; stroke-linejoin: miter; stroke-linecap: square"/>
    </g>
    <g id="patch_11">
     <path d="M 61.14375 273.919103 
L 345.161962 273.919103 
" style="fill: none; stroke: #000000; stroke-width: 0.8; stroke-linejoin: miter; stroke-linecap: square"/>
    </g>
    <g id="patch_12">
     <path d="M 61.14375 206.014133 
L 345.161962 206.014133 
" style="fill: none; stroke: #000000; stroke-width: 0.8; stroke-linejoin: miter; stroke-linecap: square"/>
    </g>
   </g>
   <g id="text_23">
    <g id="patch_13">
     <path d="M 18.856164 201.397917 
L 28.454914 201.397917 
Q 34.054914 201.397917 34.054914 195.797917 
L 34.054914 168.480417 
Q 34.054914 162.880417 28.454914 162.880417 
L 18.856164 162.880417 
Q 13.256164 162.880417 13.256164 168.480417 
L 13.256164 195.797917 
Q 13.256164 201.397917 18.856164 201.397917 
z
" style="fill: #ffffff; opacity: 0.9"/>
    </g>
    <text style="font-weight: 700; font-size: 28px; font-family: 'DejaVu Sans'; text-anchor: start" x="18.856164" y="189.756042" transform="rotate(-0 18.856164 189.756042)">j</text>
   </g>
  </g>
  <g id="axes_6">
   <g id="axes_7">
    <g id="patch_14">
     <path d="M 431.77649 273.919103 
L 715.794702 273.919103 
L 715.794702 206.014133 
L 431.77649 206.014133 
z
" style="fill: #ffffff"/>
    </g>
    <g id="matplotlib.axis_5">
     <g id="xtick_11">
      <g id="line2d_19">
       <g>
        <use xlink:href="#mfabeb76dc6" x="444.686409" y="273.919103" style="stroke: #000000; stroke-width: 0.8"/>
       </g>
      </g>
      <g id="text_24">
       <text style="font-size: 16px; font-family: 'DejaVu Sans'; text-anchor: middle" x="444.686409" y="293.076603" transform="rotate(-0 444.686409 293.076603)">0.0</text>
      </g>
     </g>
     <g id="xtick_12">
      <g id="line2d_20">
       <g>
        <use xlink:href="#mfabeb76dc6" x="509.236002" y="273.919103" style="stroke: #000000; stroke-width: 0.8"/>
       </g>
      </g>
      <g id="text_25">
       <text style="font-size: 16px; font-family: 'DejaVu Sans'; text-anchor: middle" x="509.236002" y="293.076603" transform="rotate(-0 509.236002 293.076603)">2.5</text>
      </g>
     </g>
     <g id="xtick_13">
      <g id="line2d_21">
       <g>
        <use xlink:href="#mfabeb76dc6" x="573.785596" y="273.919103" style="stroke: #000000; stroke-width: 0.8"/>
       </g>
      </g>
      <g id="text_26">
       <text style="font-size: 16px; font-family: 'DejaVu Sans'; text-anchor: middle" x="573.785596" y="293.076603" transform="rotate(-0 573.785596 293.076603)">5.0</text>
      </g>
     </g>
     <g id="xtick_14">
      <g id="line2d_22">
       <g>
        <use xlink:href="#mfabeb76dc6" x="638.33519" y="273.919103" style="stroke: #000000; stroke-width: 0.8"/>
       </g>
      </g>
      <g id="text_27">
       <text style="font-size: 16px; font-family: 'DejaVu Sans'; text-anchor: middle" x="638.33519" y="293.076603" transform="rotate(-0 638.33519 293.076603)">7.5</text>
      </g>
     </g>
     <g id="xtick_15">
      <g id="line2d_23">
       <g>
        <use xlink:href="#mfabeb76dc6" x="702.884784" y="273.919103" style="stroke: #000000; stroke-width: 0.8"/>
       </g>
      </g>
      <g id="text_28">
       <text style="font-size: 16px; font-family: 'DejaVu Sans'; text-anchor: middle" x="702.884784" y="293.076603" transform="rotate(-0 702.884784 293.076603)">10.0</text>
      </g>
     </g>
     <g id="text_29">
      <text style="font-size: 20px; font-family: 'DejaVu Sans'; text-anchor: middle" x="573.785596" y="315.600978" transform="rotate(-0 573.785596 315.600978)">x</text>
     </g>
    </g>
    <g id="matplotlib.axis_6">
     <g id="ytick_7">
      <g id="line2d_24">
       <g>
        <use xlink:href="#m8961fbff79" x="431.77649" y="270.842042" style="stroke: #000000; stroke-width: 0.8"/>
       </g>
      </g>
      <g id="text_30">
       <text style="font-size: 16px; font-family: 'DejaVu Sans'; text-anchor: end" x="424.77649" y="276.920792" transform="rotate(-0 424.77649 276.920792)">−0.5</text>
      </g>
     </g>
     <g id="ytick_8">
      <g id="line2d_25">
       <g>
        <use xlink:href="#m8961fbff79" x="431.77649" y="239.941833" style="stroke: #000000; stroke-width: 0.8"/>
       </g>
      </g>
      <g id="text_31">
       <text style="font-size: 16px; font-family: 'DejaVu Sans'; text-anchor: end" x="424.77649" y="246.020583" transform="rotate(-0 424.77649 246.020583)">0.0</text>
      </g>
     </g>
     <g id="ytick_9">
      <g id="line2d_26">
       <g>
        <use xlink:href="#m8961fbff79" x="431.77649" y="209.041625" style="stroke: #000000; stroke-width: 0.8"/>
       </g>
      </g>
      <g id="text_32">
       <text style="font-size: 16px; font-family: 'DejaVu Sans'; text-anchor: end" x="424.77649" y="215.120375" transform="rotate(-0 424.77649 215.120375)">0.5</text>
      </g>
     </g>
     <g id="text_33">
      <text style="font-size: 20px; font-family: 'DejaVu Sans'; text-anchor: middle" x="377.764615" y="239.966618" transform="rotate(-90 377.764615 239.966618)">y</text>
     </g>
    </g>
    <g id="line2d_27">
     <path d="M 444.686409 239.941833 
L 449.955763 227.676794 
L 455.225118 217.426867 
L 460.494473 210.876084 
L 465.763827 209.100722 
L 471.033182 212.392467 
L 476.302536 220.210495 
L 481.571891 231.270326 
L 486.841245 243.754861 
L 492.1106 255.612927 
L 497.379955 264.896276 
L 502.649309 270.079681 
L 507.918664 270.311522 
L 513.188018 265.55371 
L 518.457373 256.587939 
L 523.726728 244.88726 
L 528.996082 232.374061 
L 534.265437 221.104226 
L 539.534791 212.929356 
L 544.804146 209.19256 
L 550.073501 210.507783 
L 555.342855 216.658936 
L 560.61221 226.635404 
L 565.881564 238.798081 
L 571.150919 251.148672 
L 576.420273 261.658012 
L 581.689628 268.599445 
L 586.958983 270.832514 
L 592.228337 267.990331 
L 597.497692 260.539859 
L 602.767046 249.70519 
L 608.036401 237.266429 
L 613.305756 225.26723 
L 618.57511 215.679026 
L 623.844465 210.077133 
L 629.113819 209.381925 
L 634.383174 213.707624 
L 639.652529 222.34353 
L 644.921883 233.870786 
L 650.191238 246.395499 
L 655.460592 257.859893 
L 660.729947 266.3804 
L 665.999301 270.557125 
L 671.268656 269.703845 
L 676.538011 263.96075 
L 681.807365 254.271416 
L 687.07672 242.227771 
L 692.346074 229.808554 
L 697.615429 219.054205 
L 702.884784 211.731635 
" clip-path="url(#p293c6fce37)" style="fill: none; stroke: #1f77b4; stroke-width: 2; stroke-linecap: square"/>
    </g>
    <g id="patch_15">
     <path d="M 431.77649 273.919103 
L 431.77649 206.014133 
" style="fill: none; stroke: #000000; stroke-width: 0.8; stroke-linejoin: miter; stroke-linecap: square"/>
    </g>
    <g id="patch_16">
     <path d="M 715.794702 273.919103 
L 715.794702 206.014133 
" style="fill: none; stroke: #000000; stroke-width: 0.8; stroke-linejoin: miter; stroke-linecap: square"/>
    </g>
    <g id="patch_17">
     <path d="M 431.77649 273.919103 
L 715.794702 273.919103 
" style="fill: none; stroke: #000000; stroke-width: 0.8; stroke-linejoin: miter; stroke-linecap: square"/>
    </g>
    <g id="patch_18">
     <path d="M 431.77649 206.014133 
L 715.794702 206.014133 
" style="fill: none; stroke: #000000; stroke-width: 0.8; stroke-linejoin: miter; stroke-linecap: square"/>
    </g>
   </g>
   <g id="text_34">
    <g id="patch_19">
     <path d="M 389.488904 201.179167 
L 408.108904 201.179167 
Q 413.708904 201.179167 413.708904 195.579167 
L 413.708904 168.480417 
Q 413.708904 162.880417 408.108904 162.880417 
L 389.488904 162.880417 
Q 383.888904 162.880417 383.888904 168.480417 
L 383.888904 195.579167 
Q 383.888904 201.179167 389.488904 201.179167 
z
" style="fill: #ffffff; opacity: 0.9"/>
    </g>
    <text style="font-weight: 700; font-size: 28px; font-family: 'DejaVu Sans'; text-anchor: start" x="389.488904" y="189.756042" transform="rotate(-0 389.488904 189.756042)">k</text>
   </g>
  </g>
  <g id="axes_8">
   <g id="text_35">
    <g id="patch_20">
     <path d="M 18.856164 360.459583 
L 28.454914 360.459583 
Q 34.054914 360.459583 34.054914 354.859583 
L 34.054914 327.760833 
Q 34.054914 322.160833 28.454914 322.160833 
L 18.856164 322.160833 
Q 13.256164 322.160833 13.256164 327.760833 
L 13.256164 354.859583 
Q 13.256164 360.459583 18.856164 360.459583 
z
" style="fill: #ffffff; opacity: 0.9"/>
    </g>
    <text style="font-weight: 700; font-size: 28px; font-family: 'DejaVu Sans'; text-anchor: start" x="18.856164" y="349.036458" transform="rotate(-0 18.856164 349.036458)">l</text>
   </g>
  </g>
 </g>
 <defs>
  <clipPath id="p63c3c80478">
   <rect x="61.14375" y="46.733716" width="284.018212" height="67.904971"/>
  </clipPath>
  <clipPath id="pa88943e677">
   <rect x="61.14375" y="206.014133" width="284.018212" height="67.904971"/>
  </clipPath>
  <clipPath id="p293c6fce37">
   <rect x="431.77649" y="206.014133" width="284.018212" height="67.904971"/>
  </clipPath>
 </defs>
</svg>
