<?xml version="1.0" encoding="utf-8" standalone="no"?>
<!DOCTYPE svg PUBLIC "-//W3C//DTD SVG 1.1//EN"
  "http://www.w3.org/Graphics/SVG/1.1/DTD/svg11.dtd">
<svg xmlns:xlink="http://www.w3.org/1999/xlink" width="728.261501pt" height="440.39952pt" viewBox="0 0 728.261501 440.39952" xmlns="http://www.w3.org/2000/svg" version="1.1">
 <metadata>
  <rdf:RDF xmlns:dc="http://purl.org/dc/elements/1.1/" xmlns:cc="http://creativecommons.org/ns#" xmlns:rdf="http://www.w3.org/1999/02/22-rdf-syntax-ns#">
   <cc:Work>
    <dc:type rdf:resource="http://purl.org/dc/dcmitype/StillImage"/>
    <dc:date>2026-02-08T13:02:37.956692</dc:date>
    <dc:format>image/svg+xml</dc:format>
    <dc:creator>
     <cc:Agent>
      <dc:title>Matplotlib v3.10.8, https://matplotlib.org/</dc:title>
     </cc:Agent>
    </dc:creator>
   </cc:Work>
  </rdf:RDF>
 </metadata>
 <defs>
  <style type="text/css">*{stroke-linejoin: round; stroke-linecap: butt}</style>
 </defs>
 <g id="figure_1">
  <g id="patch_1">
   <path d="M 0 440.39952 
L 728.261501 440.39952 
L 728.261501 0 
L 0 0 
z
" style="fill: #ffffff"/>
  </g>
  <g id="axes_1">
   <g id="axes_2">
    <g id="patch_2">
     <path d="M 61.14375 89.839007 
L 332.972598 89.839007 
L 332.972598 37.608292 
L 61.14375 37.608292 
z
" style="fill: #ffffff"/>
    </g>
    <g id="matplotlib.axis_1">
     <g id="xtick_1">
      <g id="line2d_1">
       <defs>
        <path id="m00106a396c" d="M 0 0 
L 0 3.5 
" style="stroke: #000000; stroke-width: 0.8"/>
       </defs>
       <g>
        <use xlink:href="#m00106a396c" x="73.499607" y="89.839007" style="stroke: #000000; stroke-width: 0.8"/>
       </g>
      </g>
      <g id="text_1">
       <text style="font-size: 16px; font-family: 'DejaVu Sans'; text-anchor: middle" x="73.499607" y="108.996507" transform="rotate(-0 73.499607 108.996507)">0.0</text>
      </g>
     </g>
     <g id="xtick_2">
      <g id="line2d_2">
       <g>
        <use xlink:href="#m00106a396c" x="135.27889" y="89.839007" style="stroke: #000000; stroke-width: 0.8"/>
       </g>
      </g>
      <g id="text_2">
       <text style="font-size: 16px; font-family: 'DejaVu Sans'; text-anchor: middle" x="135.27889" y="108.996507" transform="rotate(-0 135.27889 108.996507)">2.5</text>
      </g>
     </g>
     <g id="xtick_3">
      <g id="line2d_3">
       <g>
        <use xlink:href="#m00106a396c" x="197.058174" y="89.839007" style="stroke: #000000; stroke-width: 0.8"/>
       </g>
      </g>
      <g id="text_3">
       <text style="font-size: 16px; font-family: 'DejaVu Sans'; text-anchor: middle" x="197.058174" y="108.996507" transform="rotate(-0 197.058174 108.996507)">5.0</text>
      </g>
     </g>
     <g id="xtick_4">
      <g id="line2d_4">
       <g>
        <use xlink:href="#m00106a396c" x="258.837458" y="89.839007" style="stroke: #000000; stroke-width: 0.8"/>
       </g>
      </g>
      <g id="text_4">
       <text style="font-size: 16px; font-family: 'DejaVu Sans'; text-anchor: middle" x="258.837458" y="108.996507" transform="rotate(-0 258.837458 108.996507)">7.5</text>
      </g>
     </g>
     <g id="xtick_5">
      <g id="line2d_5">
       <g>
        <use xlink:href="#m00106a396c" x="320.616741" y="89.839007" style="stroke: #000000; stroke-width: 0.8"/>
       </g>
      </g>
      <g id="text_5">
       <text style="font-size: 16px; font-family: 'DejaVu Sans'; text-anchor: middle" x="320.616741" y="108.996507" transform="rotate(-0 320.616741 108.996507)">10.0</text>
      </g>
     </g>
     <g id="text_6">
      <text style="font-size: 20px; font-family: 'DejaVu Sans'; text-anchor: middle" x="197.058174" y="131.520882" transform="rotate(-0 197.058174 131.520882)">x</text>
     </g>
    </g>
    <g id="matplotlib.axis_2">
     <g id="ytick_1">
      <g id="line2d_6">
       <defs>
        <path id="m8467305b22" d="M 0 0 
L -3.5 0 
" style="stroke: #000000; stroke-width: 0.8"/>
       </defs>
       <g>
        <use xlink:href="#m8467305b22" x="61.14375" y="87.468955" style="stroke: #000000; stroke-width: 0.8"/>
       </g>
      </g>
      <g id="text_7">
       <text style="font-size: 16px; font-family: 'DejaVu Sans'; text-anchor: end" x="54.14375" y="93.547705" transform="rotate(-0 54.14375 93.547705)">−1</text>
      </g>
     </g>
     <g id="ytick_2">
      <g id="line2d_7">
       <g>
        <use xlink:href="#m8467305b22" x="61.14375" y="63.702959" style="stroke: #000000; stroke-width: 0.8"/>
       </g>
      </g>
      <g id="text_8">
       <text style="font-size: 16px; font-family: 'DejaVu Sans'; text-anchor: end" x="54.14375" y="69.781709" transform="rotate(-0 54.14375 69.781709)">0</text>
      </g>
     </g>
     <g id="ytick_3">
      <g id="line2d_8">
       <g>
        <use xlink:href="#m8467305b22" x="61.14375" y="39.936963" style="stroke: #000000; stroke-width: 0.8"/>
       </g>
      </g>
      <g id="text_9">
       <text style="font-size: 16px; font-family: 'DejaVu Sans'; text-anchor: end" x="54.14375" y="46.015713" transform="rotate(-0 54.14375 46.015713)">1</text>
      </g>
     </g>
     <g id="text_10">
      <text style="font-size: 20px; font-family: 'DejaVu Sans'; text-anchor: middle" x="22.396875" y="63.72365" transform="rotate(-90 22.396875 63.72365)">y</text>
     </g>
    </g>
    <g id="line2d_9">
     <path d="M 73.499607 63.702959 
L 78.542814 58.886354 
L 83.58602 54.269661 
L 88.629227 50.044498 
L 93.672434 46.386228 
L 98.715641 43.446688 
L 103.758848 41.347884 
L 108.802055 40.176926 
L 113.845261 39.982416 
L 118.888468 40.772425 
L 123.931675 42.514166 
L 128.974882 45.135346 
L 134.018089 48.527175 
L 139.061295 52.548873 
L 144.104502 57.033522 
L 149.147709 61.794985 
L 154.190916 66.635639 
L 159.234123 71.354572 
L 164.27733 75.755925 
L 169.320536 79.65702 
L 174.363743 82.895942 
L 179.40695 85.338261 
L 184.450157 86.882607 
L 189.493364 87.464883 
L 194.536571 87.060922 
L 199.579777 85.687489 
L 204.622984 83.401589 
L 209.666191 80.298098 
L 214.709398 76.505827 
L 219.752605 72.182173 
L 224.795811 67.50659 
L 229.839018 62.673137 
L 234.882225 57.882427 
L 239.925432 53.333298 
L 244.968639 49.214561 
L 250.011846 45.697165 
L 255.055052 42.927098 
L 260.098259 41.019333 
L 265.141466 40.05305 
L 270.184673 40.068356 
L 275.22788 41.064616 
L 280.271087 43.000478 
L 285.314293 45.795596 
L 290.3575 49.333959 
L 295.400707 53.468706 
L 300.443914 58.028226 
L 305.487121 62.823275 
L 310.530328 67.654835 
L 315.573534 72.322373 
L 320.616741 76.632163 
" clip-path="url(#p4e47871387)" style="fill: none; stroke: #1f77b4; stroke-width: 2; stroke-linecap: square"/>
    </g>
    <g id="patch_3">
     <path d="M 61.14375 89.839007 
L 61.14375 37.608292 
" style="fill: none; stroke: #000000; stroke-width: 0.8; stroke-linejoin: miter; stroke-linecap: square"/>
    </g>
    <g id="patch_4">
     <path d="M 332.972598 89.839007 
L 332.972598 37.608292 
" style="fill: none; stroke: #000000; stroke-width: 0.8; stroke-linejoin: miter; stroke-linecap: square"/>
    </g>
    <g id="patch_5">
     <path d="M 61.14375 89.839007 
L 332.972598 89.839007 
" style="fill: none; stroke: #000000; stroke-width: 0.8; stroke-linejoin: miter; stroke-linecap: square"/>
    </g>
    <g id="patch_6">
     <path d="M 61.14375 37.608292 
L 332.972598 37.608292 
" style="fill: none; stroke: #000000; stroke-width: 0.8; stroke-linejoin: miter; stroke-linecap: square"/>
    </g>
   </g>
   <g id="text_11">
    <g id="patch_7">
     <path d="M 20.756879 41.89875 
L 30.355629 41.89875 
Q 35.955629 41.89875 35.955629 36.29875 
L 35.955629 9.2 
Q 35.955629 3.6 30.355629 3.6 
L 20.756879 3.6 
Q 15.156879 3.6 15.156879 9.2 
L 15.156879 36.29875 
Q 15.156879 41.89875 20.756879 41.89875 
z
" style="fill: #ffffff; opacity: 0.9"/>
    </g>
    <text style="font-weight: 700; font-size: 28px; font-family: 'DejaVu Sans'; text-anchor: start" x="20.756879" y="30.475625" transform="rotate(-0 20.756879 30.475625)">i</text>
   </g>
  </g>
  <g id="axes_3">
   <g id="text_12">
    <text style="font-weight: 700; font-size: 40.32px; font-family: 'DejaVu Sans'; text-anchor: middle" x="558.496998" y="59.645303" transform="rotate(-0 558.496998 59.645303)">LEGEND</text>
   </g>
  </g>
  <g id="axes_4">
   <g id="axes_5">
    <g id="patch_8">
     <path d="M 61.14375 261.519263 
L 332.972598 261.519263 
L 332.972598 209.288549 
L 61.14375 209.288549 
z
" style="fill: #ffffff"/>
    </g>
    <g id="matplotlib.axis_3">
     <g id="xtick_6">
      <g id="line2d_10">
       <g>
        <use xlink:href="#m00106a396c" x="73.499607" y="261.519263" style="stroke: #000000; stroke-width: 0.8"/>
       </g>
      </g>
      <g id="text_13">
       <text style="font-size: 16px; font-family: 'DejaVu Sans'; text-anchor: middle" x="73.499607" y="280.676763" transform="rotate(-0 73.499607 280.676763)">0.0</text>
      </g>
     </g>
     <g id="xtick_7">
      <g id="line2d_11">
       <g>
        <use xlink:href="#m00106a396c" x="135.27889" y="261.519263" style="stroke: #000000; stroke-width: 0.8"/>
       </g>
      </g>
      <g id="text_14">
       <text style="font-size: 16px; font-family: 'DejaVu Sans'; text-anchor: middle" x="135.27889" y="280.676763" transform="rotate(-0 135.27889 280.676763)">2.5</text>
      </g>
     </g>
     <g id="xtick_8">
      <g id="line2d_12">
       <g>
        <use xlink:href="#m00106a396c" x="197.058174" y="261.519263" style="stroke: #000000; stroke-width: 0.8"/>
       </g>
      </g>
      <g id="text_15">
       <text style="font-size: 16px; font-family: 'DejaVu Sans'; text-anchor: middle" x="197.058174" y="280.676763" transform="rotate(-0 197.058174 280.676763)">5.0</text>
      </g>
     </g>
     <g id="xtick_9">
      <g id="line2d_13">
       <g>
        <use xlink:href="#m00106a396c" x="258.837458" y="261.519263" style="stroke: #000000; stroke-width: 0.8"/>
       </g>
      </g>
      <g id="text_16">
       <text style="font-size: 16px; font-family: 'DejaVu Sans'; text-anchor: middle" x="258.837458" y="280.676763" transform="rotate(-0 258.837458 280.676763)">7.5</text>
      </g>
     </g>
     <g id="xtick_10">
      <g id="line2d_14">
       <g>
        <use xlink:href="#m00106a396c" x="320.616741" y="261.519263" style="stroke: #000000; stroke-width: 0.8"/>
       </g>
      </g>
      <g id="text_17">
       <text style="font-size: 16px; font-family: 'DejaVu Sans'; text-anchor: middle" x="320.616741" y="280.676763" transform="rotate(-0 320.616741 280.676763)">10.0</text>
      </g>
     </g>
     <g id="text_18">
      <text style="font-size: 20px; font-family: 'DejaVu Sans'; text-anchor: middle" x="197.058174" y="303.201138" transform="rotate(-0 197.058174 303.201138)">x</text>
     </g>
    </g>
    <g id="matplotlib.axis_4">
     <g id="ytick_4">
      <g id="line2d_15">
       <g>
        <use xlink:href="#m8467305b22" x="61.14375" y="259.161415" style="stroke: #000000; stroke-width: 0.8"/>
       </g>
      </g>
      <g id="text_19">
       <text style="font-size: 16px; font-family: 'DejaVu Sans'; text-anchor: end" x="54.14375" y="265.240165" transform="rotate(-0 54.14375 265.240165)">−1</text>
      </g>
     </g>
     <g id="ytick_5">
      <g id="line2d_16">
       <g>
        <use xlink:href="#m8467305b22" x="61.14375" y="235.412044" style="stroke: #000000; stroke-width: 0.8"/>
       </g>
      </g>
      <g id="text_20">
       <text style="font-size: 16px; font-family: 'DejaVu Sans'; text-anchor: end" x="54.14375" y="241.490794" transform="rotate(-0 54.14375 241.490794)">0</text>
      </g>
     </g>
     <g id="ytick_6">
      <g id="line2d_17">
       <g>
        <use xlink:href="#m8467305b22" x="61.14375" y="211.662673" style="stroke: #000000; stroke-width: 0.8"/>
       </g>
      </g>
      <g id="text_21">
       <text style="font-size: 16px; font-family: 'DejaVu Sans'; text-anchor: end" x="54.14375" y="217.741423" transform="rotate(-0 54.14375 217.741423)">1</text>
      </g>
     </g>
     <g id="text_22">
      <text style="font-size: 20px; font-family: 'DejaVu Sans'; text-anchor: middle" x="22.396875" y="235.403906" transform="rotate(-90 22.396875 235.403906)">y</text>
     </g>
    </g>
    <g id="line2d_18">
     <path d="M 73.499607 211.662673 
L 78.542814 212.155531 
L 83.58602 213.61365 
L 88.629227 215.97651 
L 93.672434 219.146041 
L 98.715641 222.990692 
L 103.758848 227.350891 
L 108.802055 232.045668 
L 113.845261 236.880165 
L 118.888468 241.653729 
L 123.931675 246.168231 
L 128.974882 250.236299 
L 134.018089 253.689086 
L 139.061295 256.383286 
L 144.104502 258.207075 
L 149.147709 259.084757 
L 154.190916 258.979904 
L 159.234123 257.896868 
L 164.27733 255.880601 
L 169.320536 253.014786 
L 174.363743 249.418371 
L 179.40695 245.240624 
L 184.450157 240.654942 
L 189.493364 235.851653 
L 194.536571 231.030119 
L 199.579777 226.390456 
L 204.622984 222.125234 
L 209.666191 218.41148 
L 214.709398 215.403334 
L 219.752605 213.225649 
L 224.795811 211.968809 
L 229.839018 211.684979 
L 234.882225 212.385941 
L 239.925432 214.042599 
L 244.968639 216.586196 
L 250.011846 219.911159 
L 255.055052 223.879485 
L 260.098259 228.326469 
L 265.141466 233.06754 
L 270.184673 237.90592 
L 275.22788 242.640791 
L 280.271087 247.075634 
L 285.314293 251.026379 
L 290.3575 254.329052 
L 295.400707 256.846576 
L 300.443914 258.47446 
L 305.487121 259.14514 
L 310.530328 258.830778 
L 315.573534 257.544423 
L 320.616741 255.339465 
" clip-path="url(#p5f60392867)" style="fill: none; stroke: #1f77b4; stroke-width: 2; stroke-linecap: square"/>
    </g>
    <g id="patch_9">
     <path d="M 61.14375 261.519263 
L 61.14375 209.288549 
" style="fill: none; stroke: #000000; stroke-width: 0.8; stroke-linejoin: miter; stroke-linecap: square"/>
    </g>
    <g id="patch_10">
     <path d="M 332.972598 261.519263 
L 332.972598 209.288549 
" style="fill: none; stroke: #000000; stroke-width: 0.8; stroke-linejoin: miter; stroke-linecap: square"/>
    </g>
    <g id="patch_11">
     <path d="M 61.14375 261.519263 
L 332.972598 261.519263 
" style="fill: none; stroke: #000000; stroke-width: 0.8; stroke-linejoin: miter; stroke-linecap: square"/>
    </g>
    <g id="patch_12">
     <path d="M 61.14375 209.288549 
L 332.972598 209.288549 
" style="fill: none; stroke: #000000; stroke-width: 0.8; stroke-linejoin: miter; stroke-linecap: square"/>
    </g>
   </g>
   <g id="text_23">
    <g id="patch_13">
     <path d="M 20.756879 213.797757 
L 30.355629 213.797757 
Q 35.955629 213.797757 35.955629 208.197757 
L 35.955629 180.880257 
Q 35.955629 175.280257 30.355629 175.280257 
L 20.756879 175.280257 
Q 15.156879 175.280257 15.156879 180.880257 
L 15.156879 208.197757 
Q 15.156879 213.797757 20.756879 213.797757 
z
" style="fill: #ffffff; opacity: 0.9"/>
    </g>
    <text style="font-weight: 700; font-size: 28px; font-family: 'DejaVu Sans'; text-anchor: start" x="20.756879" y="202.155882" transform="rotate(-0 20.756879 202.155882)">j</text>
   </g>
  </g>
  <g id="axes_6">
   <g id="axes_7">
    <g id="patch_14">
     <path d="M 443.77601 261.519263 
L 715.604858 261.519263 
L 715.604858 209.288549 
L 443.77601 209.288549 
z
" style="fill: #ffffff"/>
    </g>
    <g id="matplotlib.axis_5">
     <g id="xtick_11">
      <g id="line2d_19">
       <g>
        <use xlink:href="#m00106a396c" x="456.131867" y="261.519263" style="stroke: #000000; stroke-width: 0.8"/>
       </g>
      </g>
      <g id="text_24">
       <text style="font-size: 16px; font-family: 'DejaVu Sans'; text-anchor: middle" x="456.131867" y="280.676763" transform="rotate(-0 456.131867 280.676763)">0.0</text>
      </g>
     </g>
     <g id="xtick_12">
      <g id="line2d_20">
       <g>
        <use xlink:href="#m00106a396c" x="517.91115" y="261.519263" style="stroke: #000000; stroke-width: 0.8"/>
       </g>
      </g>
      <g id="text_25">
       <text style="font-size: 16px; font-family: 'DejaVu Sans'; text-anchor: middle" x="517.91115" y="280.676763" transform="rotate(-0 517.91115 280.676763)">2.5</text>
      </g>
     </g>
     <g id="xtick_13">
      <g id="line2d_21">
       <g>
        <use xlink:href="#m00106a396c" x="579.690434" y="261.519263" style="stroke: #000000; stroke-width: 0.8"/>
       </g>
      </g>
      <g id="text_26">
       <text style="font-size: 16px; font-family: 'DejaVu Sans'; text-anchor: middle" x="579.690434" y="280.676763" transform="rotate(-0 579.690434 280.676763)">5.0</text>
      </g>
     </g>
     <g id="xtick_14">
      <g id="line2d_22">
       <g>
        <use xlink:href="#m00106a396c" x="641.469718" y="261.519263" style="stroke: #000000; stroke-width: 0.8"/>
       </g>
      </g>
      <g id="text_27">
       <text style="font-size: 16px; font-family: 'DejaVu Sans'; text-anchor: middle" x="641.469718" y="280.676763" transform="rotate(-0 641.469718 280.676763)">7.5</text>
      </g>
     </g>
     <g id="xtick_15">
      <g id="line2d_23">
       <g>
        <use xlink:href="#m00106a396c" x="703.249001" y="261.519263" style="stroke: #000000; stroke-width: 0.8"/>
       </g>
      </g>
      <g id="text_28">
       <text style="font-size: 16px; font-family: 'DejaVu Sans'; text-anchor: middle" x="703.249001" y="280.676763" transform="rotate(-0 703.249001 280.676763)">10.0</text>
      </g>
     </g>
     <g id="text_29">
      <text style="font-size: 20px; font-family: 'DejaVu Sans'; text-anchor: middle" x="579.690434" y="303.201138" transform="rotate(-0 579.690434 303.201138)">x</text>
     </g>
    </g>
    <g id="matplotlib.axis_6">
     <g id="ytick_7">
      <g id="line2d_24">
       <g>
        <use xlink:href="#m8467305b22" x="443.77601" y="259.152469" style="stroke: #000000; stroke-width: 0.8"/>
       </g>
      </g>
      <g id="text_30">
       <text style="font-size: 16px; font-family: 'DejaVu Sans'; text-anchor: end" x="436.77601" y="265.231219" transform="rotate(-0 436.77601 265.231219)">−0.5</text>
      </g>
     </g>
     <g id="ytick_8">
      <g id="line2d_25">
       <g>
        <use xlink:href="#m8467305b22" x="443.77601" y="235.384843" style="stroke: #000000; stroke-width: 0.8"/>
       </g>
      </g>
      <g id="text_31">
       <text style="font-size: 16px; font-family: 'DejaVu Sans'; text-anchor: end" x="436.77601" y="241.463593" transform="rotate(-0 436.77601 241.463593)">0.0</text>
      </g>
     </g>
     <g id="ytick_9">
      <g id="line2d_26">
       <g>
        <use xlink:href="#m8467305b22" x="443.77601" y="211.617217" style="stroke: #000000; stroke-width: 0.8"/>
       </g>
      </g>
      <g id="text_32">
       <text style="font-size: 16px; font-family: 'DejaVu Sans'; text-anchor: end" x="436.77601" y="217.695967" transform="rotate(-0 436.77601 217.695967)">0.5</text>
      </g>
     </g>
     <g id="text_33">
      <text style="font-size: 20px; font-family: 'DejaVu Sans'; text-anchor: middle" x="389.764135" y="235.403906" transform="rotate(-90 389.764135 235.403906)">y</text>
     </g>
    </g>
    <g id="line2d_27">
     <path d="M 456.131867 235.384843 
L 461.175074 225.950898 
L 466.21828 218.066924 
L 471.261487 213.028234 
L 476.304694 211.662673 
L 481.347901 214.194596 
L 486.391108 220.208017 
L 491.434315 228.714948 
L 496.477521 238.317723 
L 501.520728 247.438635 
L 506.563935 254.579142 
L 511.607142 258.566081 
L 516.650349 258.744407 
L 521.693555 255.084823 
L 526.736762 248.188588 
L 531.779969 239.188734 
L 536.823176 229.563912 
L 541.866383 220.895451 
L 546.90959 214.607557 
L 551.952796 211.733312 
L 556.996003 212.744946 
L 562.03921 217.476252 
L 567.082417 225.149888 
L 572.125624 234.505098 
L 577.168831 244.004848 
L 582.212037 252.088355 
L 587.255244 257.427522 
L 592.298451 259.14514 
L 597.341658 256.959008 
L 602.384865 251.228301 
L 607.428071 242.894559 
L 612.471278 233.326992 
L 617.514485 224.097524 
L 622.557692 216.72253 
L 627.600899 212.413702 
L 632.644106 211.878967 
L 637.687312 215.20618 
L 642.730519 221.848691 
L 647.773726 230.715153 
L 652.816933 240.348832 
L 657.86014 249.166942 
L 662.903347 255.720691 
L 667.946553 258.933318 
L 672.98976 258.276998 
L 678.032967 253.859561 
L 683.076174 246.40678 
L 688.119381 237.143126 
L 693.162588 227.590591 
L 698.205794 219.318629 
L 703.249001 213.686301 
" clip-path="url(#pf287029282)" style="fill: none; stroke: #1f77b4; stroke-width: 2; stroke-linecap: square"/>
    </g>
    <g id="patch_15">
     <path d="M 443.77601 261.519263 
L 443.77601 209.288549 
" style="fill: none; stroke: #000000; stroke-width: 0.8; stroke-linejoin: miter; stroke-linecap: square"/>
    </g>
    <g id="patch_16">
     <path d="M 715.604858 261.519263 
L 715.604858 209.288549 
" style="fill: none; stroke: #000000; stroke-width: 0.8; stroke-linejoin: miter; stroke-linecap: square"/>
    </g>
    <g id="patch_17">
     <path d="M 443.77601 261.519263 
L 715.604858 261.519263 
" style="fill: none; stroke: #000000; stroke-width: 0.8; stroke-linejoin: miter; stroke-linecap: square"/>
    </g>
    <g id="patch_18">
     <path d="M 443.77601 209.288549 
L 715.604858 209.288549 
" style="fill: none; stroke: #000000; stroke-width: 0.8; stroke-linejoin: miter; stroke-linecap: square"/>
    </g>
   </g>
   <g id="text_34">
    <g id="patch_19">
     <path d="M 403.389139 213.579007 
L 422.009139 213.579007 
Q 427.609139 213.579007 427.609139 207.979007 
L 427.609139 180.880257 
Q 427.609139 175.280257 422.009139 175.280257 
L 403.389139 175.280257 
Q 397.789139 175.280257 397.789139 180.880257 
L 397.789139 207.979007 
Q 397.789139 213.579007 403.389139 213.579007 
z
" style="fill: #ffffff; opacity: 0.9"/>
    </g>
    <text style="font-weight: 700; font-size: 28px; font-family: 'DejaVu Sans'; text-anchor: start" x="403.389139" y="202.155882" transform="rotate(-0 403.389139 202.155882)">k</text>
   </g>
  </g>
  <g id="axes_8">
   <g id="text_35">
    <g id="patch_20">
     <path d="M 20.756879 385.259263 
L 30.355629 385.259263 
Q 35.955629 385.259263 35.955629 379.659263 
L 35.955629 352.560513 
Q 35.955629 346.960513 30.355629 346.960513 
L 20.756879 346.960513 
Q 15.156879 346.960513 15.156879 352.560513 
L 15.156879 379.659263 
Q 15.156879 385.259263 20.756879 385.259263 
z
" style="fill: #ffffff; opacity: 0.9"/>
    </g>
    <text style="font-weight: 700; font-size: 28px; font-family: 'DejaVu Sans'; text-anchor: start" x="20.756879" y="373.836138" transform="rotate(-0 20.756879 373.836138)">l</text>
   </g>
  </g>
 </g>
 <defs>
  <clipPath id="p4e47871387">
   <rect x="61.14375" y="37.608292" width="271.828848" height="52.230714"/>
  </clipPath>
  <clipPath id="p5f60392867">
   <rect x="61.14375" y="209.288549" width="271.828848" height="52.230714"/>
  </clipPath>
  <clipPath id="pf287029282">
   <rect x="443.77601" y="209.288549" width="271.828848" height="52.230714"/>
  </clipPath>
 </defs>
</svg>
